<?xml version="1.0" encoding="utf-8"?>
<svg xmlns="http://www.w3.org/2000/svg" viewBox="-55.5895 -3.1389 999.0865 512.5529" width="999.087px" height="512.553px" preserveAspectRatio="none"><g id="object-3"><rect fill="#3178c6" height="512" rx="50" width="512" x="431.497" y="-2.586" id="object-0"/><rect fill="#3178c6" height="512" rx="50" width="512" x="431.497" y="-2.586" id="object-1"/><path clip-rule="evenodd" d="M 748.436 404.838 L 748.436 454.899 C 756.574 459.071 766.199 462.199 777.311 464.285 C 788.423 466.371 800.134 467.414 812.446 467.414 C 824.445 467.414 835.843 466.267 846.642 463.972 C 857.441 461.678 866.91 457.897 875.048 452.63 C 883.186 447.364 889.629 440.48 894.376 431.98 C 899.123 423.48 901.497 412.973 901.497 400.458 C 901.497 391.384 900.141 383.432 897.428 376.601 C 894.715 369.77 890.803 363.695 885.69 358.376 C 880.578 353.057 874.448 348.285 867.301 344.061 C 860.154 339.837 852.094 335.848 843.121 332.094 C 836.548 329.382 830.653 326.749 825.436 324.194 C 820.219 321.638 815.785 319.031 812.133 316.372 C 808.481 313.712 805.664 310.896 803.682 307.924 C 801.7 304.951 800.708 301.588 800.708 297.833 C 800.708 294.392 801.595 291.289 803.369 288.525 C 805.143 285.761 807.647 283.389 810.881 281.407 C 814.116 279.426 818.08 277.887 822.775 276.792 C 827.471 275.697 832.687 275.15 838.426 275.15 C 842.599 275.15 847.007 275.463 851.65 276.088 C 856.293 276.714 860.962 277.679 865.658 278.982 C 870.353 280.286 874.917 281.929 879.352 283.91 C 883.786 285.892 887.881 288.186 891.637 290.794 L 891.637 244.018 C 884.021 241.098 875.7 238.934 866.675 237.526 C 857.65 236.118 847.294 235.414 835.609 235.414 C 823.714 235.414 812.446 236.692 801.804 239.247 C 791.162 241.802 781.798 245.791 773.711 251.214 C 765.625 256.638 759.235 263.547 754.54 271.943 C 749.845 280.338 747.497 290.376 747.497 302.057 C 747.497 316.971 751.801 329.695 760.409 340.229 C 769.016 350.762 782.084 359.679 799.613 366.98 C 806.499 369.796 812.916 372.559 818.863 375.271 C 824.81 377.983 829.949 380.799 834.278 383.719 C 838.608 386.639 842.025 389.82 844.53 393.262 C 847.034 396.703 848.286 400.614 848.286 404.995 C 848.286 408.228 847.503 411.226 845.938 413.99 C 844.373 416.754 841.999 419.152 838.817 421.186 C 835.635 423.22 831.67 424.81 826.923 425.957 C 822.175 427.105 816.62 427.678 810.255 427.678 C 799.404 427.678 788.658 425.775 778.015 421.968 C 767.373 418.162 757.513 412.452 748.436 404.838 Z M 664.277 281.496 L 728.497 281.496 L 728.497 240.414 L 549.497 240.414 L 549.497 281.496 L 613.403 281.496 L 613.403 464.414 L 664.277 464.414 L 664.277 281.496 Z" fill="#fff" fill-rule="evenodd" id="object-2"/><g transform="matrix(4.235911, 0, 0, 4.235911, -57.102234, -3919.475342)" id="layer1" style=""><g transform="matrix(0.72398596,0,0,0.72398596,-242.32856,291.45639)" id="layer1-9"><g transform="matrix(0.8270688,0,0,0.8270688,-55.365972,706.36381)" id="layer1-1"><path d="m 646.07405,203.25991 -106.13118,0.55691 c -21.89746,-1.11326 -43.4776,4.21614 -62.13527,14.95702 l 0,0.0796 c -3.33711,1.81891 -5.56911,5.32143 -5.56911,9.38792 0,5.92692 4.73778,10.74041 10.66086,10.74041 3.09166,0 5.91605,-1.33165 7.8763,-3.42102 23.3302,-12.50417 51.86997,-14.87308 78.20611,-4.05749 46.77861,19.20199 69.16922,72.88108 49.96281,119.65615 -5.1513,12.54406 -12.80214,23.34784 -22.11729,32.06212 l 0.0794,0.0794 c -3.18785,1.85971 -5.33043,5.34825 -5.33043,9.30836 0,5.92667 4.81282,10.66085 10.74041,10.66085 3.81113,0 7.16534,-2.00192 9.06968,-5.01219 11.34954,-10.67027 20.6758,-23.81463 26.97037,-39.14284 0.43387,-1.04671 43.88473,-106.9623 43.99591,-107.245 7.42263,-18.07364 -1.25817,-38.72468 -19.33274,-46.144 -5.57424,-2.286 -10.68471,-2.54526 -16.94598,-2.46631 z m -5.01219,9.94483 c 0.59711,-0.0411 1.20677,1e-5 1.82985,0 5.46284,5e-5 9.68726,1.4896 12.80894,4.53484 3.1216,3.04535 4.69393,6.84804 4.69395,11.37688 -2e-5,2.57685 -0.45881,4.98992 -1.35249,7.31939 -0.89373,2.32956 -2.27818,4.76864 -4.21661,7.3194 -1.28391,1.69185 -3.57341,4.14396 -6.9216,7.31939 -3.34826,3.17545 -5.47101,5.32357 -6.36469,6.36469 -0.89373,1.04114 -1.67383,2.03417 -2.22764,3.02322 l 21.08303,0 0,10.18351 -37.15387,0 c 0.40279,-3.85217 1.56618,-7.53035 3.58014,-10.97909 2.01397,-3.44872 5.99258,-7.98389 11.93379,-13.68408 4.78314,-4.60697 7.74848,-7.74812 8.83101,-9.38792 1.46011,-2.26442 2.14805,-4.47048 2.14808,-6.68292 -3e-5,-2.44661 -0.63815,-4.33418 -1.90941,-5.64866 -1.27133,-1.31438 -3.01034,-1.98892 -5.25086,-1.98897 -2.21537,5e-5 -3.94181,0.68907 -5.25087,2.06853 -1.30909,1.37953 -2.1058,3.64062 -2.3072,6.84204 l -10.5813,-1.03427 c 0.62934,-6.0385 2.64384,-10.41873 5.9669,-13.04761 2.90764,-2.3002 6.48106,-3.61081 10.66085,-3.89837 z" id="path17" style="fill:#f79a10"/><path d="m 506.27674,339.99107 c 0.21694,15.26358 11.55619,21.42257 23.76314,21.42257 8.93497,0 20.27079,-3.94022 20.27079,-16.25838 0,-10.58394 -12.8622,-14.28432 -35.09837,-19.69813 -17.87705,-4.43531 -35.74815,-11.57434 -35.74815,-33.98252 0,-32.50129 24.85195,-40.87538 49.0483,-40.87538 24.63499,0 47.30535,9.35365 49.70417,40.62588 l -29.42764,0 c -0.87202,-13.53836 -10.03029,-17.23327 -21.14336,-17.23327 -6.97992,0 -17.22649,1.47429 -17.22649,11.81863 0,12.55888 17.44344,14.27845 35.09656,18.96341 18.09511,4.67448 35.75464,12.06354 35.75464,35.70665 0,33.48711 -25.72368,44.32032 -51.44734,44.32032 -26.1572,0 -51.65947,-11.07861 -52.97475,-44.81523 l 29.4285,0 0,0.005 z" id="path19" style="fill:#666666"/></g><g transform="scale(0.98346501,1.016813)" id="text3120" style="font-size:30.88782501px;font-style:normal;font-variant:normal;font-weight:bold;font-stretch:normal;line-height:125%;letter-spacing:0px;word-spacing:0px;fill:#000000;fill-opacity:1;stroke:none;font-family:Arial;-inkscape-font-specification:Arial Bold"/></g></g></g></svg>